<svg xmlns="http://www.w3.org/2000/svg" width="600" height="400" viewBox="0 0 600 400"><rect width="100%" height="100%" fill="#E91E63"/><path fill="#FFFFFF" d="M126.75 207.66h13.01v5H120.7v-32.53h6.05zm39.42-27.53h5.33v32.53h-3.1q-.72 0-1.2-.24-.49-.23-.94-.79l-16.99-21.69q.14 1.48.14 2.74v19.98h-5.33v-32.53h3.17q.38 0 .66.03t.5.13q.21.1.41.3.21.19.45.5l17.06 21.78q-.07-.78-.11-1.55-.05-.77-.05-1.42zm17.26 16.19v10.36q.94 1.14 2.06 1.61 1.11.48 2.35.48 1.28 0 2.3-.46 1.03-.46 1.75-1.44t1.1-2.5.38-3.63q0-3.81-1.26-5.51t-3.62-1.7q-1.6 0-2.79.74-1.19.73-2.27 2.05m0-17.1v13.19q1.39-1.46 3.09-2.33t3.88-.87q2.01 0 3.61.79 1.61.79 2.75 2.26 1.14 1.48 1.74 3.57.61 2.09.61 4.7 0 2.82-.7 5.11-.69 2.3-1.99 3.93-1.29 1.63-3.11 2.53-1.83.9-4.05.9-1.08 0-1.96-.22-.88-.21-1.62-.59t-1.36-.94q-.62-.55-1.18-1.22l-.25 1.55q-.14.59-.46.83-.33.25-.89.25h-3.67v-33.44zm20.16 10.35h5.58v23.09h-5.58zm6.34-6.72q0 .72-.29 1.35t-.78 1.1q-.48.47-1.13.75-.65.29-1.4.29-.72 0-1.36-.29-.64-.28-1.11-.75t-.76-1.1q-.28-.63-.28-1.35 0-.74.28-1.4.29-.65.76-1.12t1.11-.76q.64-.28 1.36-.28.75 0 1.4.28.65.29 1.13.76.49.47.78 1.12.29.66.29 1.4m12.6 30.17q-3.01 0-4.62-1.7t-1.61-4.69v-12.89h-2.36q-.45 0-.77-.29-.31-.3-.31-.88v-2.21l3.71-.6 1.17-6.3q.11-.45.43-.7.31-.25.81-.25h2.88v7.27h6.16v3.96h-6.16v12.51q0 1.08.53 1.69.53.6 1.45.6.52 0 .86-.12.35-.13.61-.26t.46-.26q.21-.12.41-.12.25 0 .4.12.16.13.34.37l1.67 2.7q-1.22 1.02-2.79 1.53-1.58.52-3.27.52m24.39-20.95-1.26 2q-.22.37-.47.51-.25.15-.63.15-.4 0-.87-.23-.46-.22-1.06-.5-.61-.29-1.39-.51-.77-.22-1.83-.22-1.64 0-2.58.69-.93.7-.93 1.82 0 .75.48 1.25.49.51 1.28.89.8.39 1.82.69 1.01.3 2.05.66 1.05.36 2.06.82 1.02.46 1.81 1.17.8.71 1.29 1.7.48.99.48 2.39 0 1.66-.6 3.07-.59 1.41-1.76 2.43t-2.89 1.6q-1.72.57-3.97.57-1.2 0-2.33-.21-1.14-.22-2.19-.6-1.04-.38-1.93-.9t-1.56-1.13l1.28-2.11q.25-.38.58-.58.34-.21.86-.21t.98.3q.46.29 1.07.62.6.34 1.42.64.83.29 2.09.29.99 0 1.69-.24.71-.23 1.17-.62.47-.38.68-.89.21-.5.21-1.04 0-.81-.48-1.33t-1.28-.9-1.83-.69q-1.02-.3-2.09-.66t-2.09-.84q-1.02-.49-1.82-1.23t-1.29-1.82q-.48-1.08-.48-2.61 0-1.42.56-2.7.57-1.28 1.66-2.24t2.72-1.53q1.63-.58 3.77-.58 2.38 0 4.34.79t3.26 2.07m22.32-11.94v32.53h-6.07v-32.53zm11.21 10.46.38 1.82q.7-.7 1.47-1.29.78-.6 1.65-1.02.86-.41 1.85-.65t2.16-.24q1.89 0 3.36.65 1.46.64 2.44 1.8t1.48 2.76q.51 1.61.51 3.55v14.69h-5.56v-14.69q0-2.12-.97-3.28-.96-1.16-2.94-1.16-1.44 0-2.7.66-1.26.65-2.39 1.77v16.7h-5.56v-23.09h3.4q1.08 0 1.42 1.02m28.26 22.43q-3.02 0-4.63-1.7-1.6-1.7-1.6-4.69v-12.89h-2.37q-.45 0-.76-.29-.32-.3-.32-.88v-2.21l3.72-.6 1.17-6.3q.11-.45.42-.7.32-.25.81-.25h2.88v7.27h6.17v3.96h-6.17v12.51q0 1.08.53 1.69.53.6 1.45.6.52 0 .87-.12.35-.13.61-.26t.46-.26q.2-.12.4-.12.25 0 .41.12.16.13.34.37l1.66 2.7q-1.21 1.02-2.79 1.53-1.57.52-3.26.52m13.43-14.56h10.49q0-1.08-.31-2.03-.3-.96-.91-1.68t-1.54-1.14q-.93-.41-2.17-.41-2.41 0-3.79 1.37-1.39 1.37-1.77 3.89m14.18 3.36h-14.29q.13 1.77.63 3.07.49 1.29 1.3 2.13.81.85 1.93 1.26 1.11.42 2.46.42t2.33-.31q.98-.32 1.71-.7t1.28-.7q.55-.31 1.07-.31.7 0 1.04.51l1.59 2.03q-.92 1.08-2.07 1.81-1.14.73-2.39 1.17t-2.55.62q-1.29.18-2.5.18-2.41 0-4.48-.8t-3.6-2.36q-1.53-1.57-2.41-3.87-.88-2.31-.88-5.35 0-2.36.77-4.44.76-2.08 2.19-3.62t3.49-2.44q2.06-.91 4.65-.91 2.18 0 4.02.7 1.85.7 3.18 2.04 1.32 1.34 2.08 3.28.75 1.95.75 4.45 0 1.26-.27 1.7t-1.03.44m13.9-1.27q1.04 0 1.8-.28.77-.28 1.27-.77.51-.5.77-1.19.26-.7.26-1.53 0-1.71-1.03-2.72-1.02-1-3.07-1t-3.07 1q-1.02 1.01-1.02 2.72 0 .81.25 1.5.26.7.77 1.21.51.5 1.28.78.78.28 1.79.28m6.28 13.14q0-.67-.41-1.1-.4-.42-1.1-.66t-1.63-.35-1.98-.17q-1.05-.05-2.16-.1t-2.17-.18q-.92.52-1.5 1.21-.57.7-.57 1.62 0 .61.3 1.14.31.53.97.91t1.72.6q1.06.21 2.59.21 1.55 0 2.68-.23 1.12-.24 1.85-.66.73-.41 1.07-.99.34-.57.34-1.25m-1.1-23.33h6.63v2.07q0 .99-1.19 1.22l-2.07.38q.47 1.19.47 2.61 0 1.71-.68 3.09-.69 1.39-1.9 2.36-1.22.96-2.87 1.49-1.66.53-3.57.53-.67 0-1.3-.07t-1.24-.18q-1.08.66-1.08 1.47 0 .69.64 1.02t1.7.46q1.06.14 2.41.17t2.76.14q1.42.12 2.77.4t2.41.89q1.06.6 1.7 1.65t.64 2.69q0 1.53-.76 2.97-.75 1.44-2.18 2.57-1.43 1.12-3.51 1.81-2.08.68-4.73.68-2.61 0-4.55-.5-1.93-.51-3.22-1.35-1.28-.85-1.91-1.95t-.63-2.3q0-1.62.98-2.71t2.69-1.74q-.92-.47-1.46-1.26t-.54-2.07q0-.52.19-1.07t.56-1.09.93-1.02q.57-.49 1.33-.87-1.75-.94-2.76-2.52-1-1.57-1-3.69 0-1.71.69-3.09.69-1.39 1.91-2.37 1.23-.97 2.9-1.49 1.68-.52 3.66-.52 1.49 0 2.79.3 1.31.31 2.39.89m15.05.61.34 2.61q1.08-2.07 2.56-3.25 1.49-1.18 3.51-1.18 1.6 0 2.57.7l-.36 4.16q-.12.4-.33.57t-.57.17q-.34 0-1.01-.11-.66-.11-1.29-.11-.92 0-1.64.27t-1.3.77q-.57.51-1.01 1.23t-.82 1.64v14.22h-5.56v-23.09h3.27q.85 0 1.19.31.34.3.45 1.09m24.07 15.73v-3.9q-2.4.12-4.05.42-1.64.31-2.63.78t-1.42 1.1q-.42.63-.42 1.37 0 1.47.86 2.1.87.63 2.26.63 1.71 0 2.96-.62t2.44-1.88m-11.74-12.13-.99-1.78q3.98-3.64 9.58-3.64 2.03 0 3.63.66 1.59.67 2.7 1.85 1.1 1.18 1.67 2.82.58 1.64.58 3.6v14.58h-2.52q-.79 0-1.22-.24-.43-.23-.67-.95l-.5-1.67q-.88.79-1.71 1.39-.83.59-1.73 1-.9.4-1.93.62-1.02.21-2.26.21-1.46 0-2.7-.39-1.23-.4-2.13-1.18-.9-.79-1.4-1.96-.49-1.17-.49-2.72 0-.88.29-1.75.29-.86.95-1.65.67-.79 1.73-1.49 1.05-.69 2.59-1.21 1.55-.52 3.59-.85 2.05-.32 4.68-.39v-1.35q0-2.32-.99-3.43-.99-1.12-2.85-1.12-1.35 0-2.24.32-.89.31-1.57.71l-1.22.71q-.55.31-1.23.31-.58 0-.99-.3-.4-.3-.65-.71m30.08 18.45q-3.01 0-4.62-1.7t-1.61-4.69v-12.89h-2.36q-.45 0-.77-.29-.31-.3-.31-.88v-2.21l3.71-.6 1.17-6.3q.11-.45.43-.7.31-.25.81-.25h2.88v7.27h6.16v3.96h-6.16v12.51q0 1.08.52 1.69.53.6 1.46.6.51 0 .86-.12.35-.13.61-.26t.46-.26q.2-.12.41-.12.24 0 .4.12.16.13.34.37l1.66 2.7q-1.21 1.02-2.79 1.53-1.57.52-3.26.52m9.23-23.45h5.58v23.09h-5.58zm6.34-6.72q0 .72-.29 1.35t-.78 1.1q-.48.47-1.13.75-.66.29-1.4.29-.72 0-1.36-.29-.64-.28-1.11-.75-.48-.47-.76-1.1t-.28-1.35q0-.74.28-1.4.28-.65.76-1.12.47-.47 1.11-.76.64-.28 1.36-.28.74 0 1.4.28.65.29 1.13.76.49.47.78 1.12.29.66.29 1.4m15.12 6.36q2.57 0 4.67.84 2.1.83 3.6 2.36t2.31 3.73q.81 2.21.81 4.93 0 2.75-.81 4.95-.81 2.21-2.31 3.76t-3.6 2.39q-2.1.83-4.67.83-2.59 0-4.7-.83-2.12-.84-3.61-2.39-1.5-1.55-2.32-3.76-.82-2.2-.82-4.95 0-2.72.82-4.93.82-2.2 2.32-3.73 1.49-1.53 3.61-2.36 2.11-.84 4.7-.84m0 19.51q2.88 0 4.26-1.93 1.39-1.94 1.39-5.67 0-3.74-1.39-5.69-1.38-1.96-4.26-1.96-2.92 0-4.33 1.97t-1.41 5.68 1.41 5.66q1.41 1.94 4.33 1.94M464 190.59l.39 1.82q.69-.7 1.47-1.29.78-.6 1.64-1.02.87-.41 1.86-.65t2.16-.24q1.89 0 3.35.65 1.46.64 2.44 1.8t1.49 2.76q.5 1.61.5 3.55v14.69h-5.55v-14.69q0-2.12-.97-3.28t-2.95-1.16q-1.44 0-2.7.66-1.26.65-2.38 1.77v16.7h-5.56v-23.09h3.4q1.08 0 1.41 1.02"/></svg>