<svg xmlns="http://www.w3.org/2000/svg" width="600" height="400" viewBox="0 0 600 400"><rect width="100%" height="100%" fill="#0E7490"/><path fill="#FFFFFF" d="M154.685 186.845h3.9l-8.31 26.75h-4.49l-5.85-18.28q-.24-.66-.44-1.63-.11.47-.22.87-.11.41-.24.76l-5.91 18.28h-4.51l-8.29-26.75h4.17q.64 0 1.08.3.43.31.58.83l4.55 16q.15.59.29 1.29.14.69.28 1.45.15-.78.33-1.46.17-.69.38-1.28l5.25-16q.15-.43.58-.78.44-.35 1.07-.35h1.46q.65 0 1.05.31.41.32.61.82l5.24 16q.39 1.15.7 2.65.24-1.47.54-2.65l4.55-16q.11-.46.56-.8.46-.33 1.09-.33m10.08 15.08h8.62q0-.89-.25-1.68-.25-.78-.75-1.38-.5-.59-1.27-.93-.76-.34-1.78-.34-1.98 0-3.12 1.13-1.14 1.12-1.45 3.2m11.65 2.75h-11.74q.11 1.46.52 2.53.4 1.06 1.07 1.76.66.69 1.58 1.03t2.03.34 1.91-.25q.81-.26 1.41-.58.6-.31 1.05-.57t.88-.26q.57 0 .85.42l1.31 1.67q-.75.89-1.7 1.49-.94.6-1.97.96-1.02.36-2.09.51-1.06.15-2.06.15-1.98 0-3.68-.66t-2.96-1.94q-1.26-1.29-1.98-3.18-.72-1.9-.72-4.4 0-1.94.63-3.65.62-1.71 1.8-2.98 1.17-1.27 2.87-2.01 1.69-.74 3.82-.74 1.79 0 3.31.58 1.52.57 2.61 1.67t1.71 2.7.62 3.66q0 1.03-.22 1.39-.23.36-.86.36m9.07-4.51v8.51q.78.94 1.69 1.33.92.39 1.94.39 1.05 0 1.89-.38t1.44-1.18q.59-.81.9-2.06.32-1.25.32-2.98 0-3.13-1.04-4.53-1.04-1.39-2.98-1.39-1.31 0-2.29.6t-1.87 1.69m0-14.06v10.84q1.15-1.2 2.54-1.91 1.4-.72 3.19-.72 1.65 0 2.97.65 1.33.65 2.26 1.86.94 1.21 1.43 2.93.5 1.72.5 3.87 0 2.31-.57 4.2t-1.64 3.23q-1.06 1.34-2.56 2.08t-3.33.74q-.89 0-1.61-.18-.72-.17-1.33-.49-.61-.31-1.12-.77-.51-.45-.97-1l-.2 1.27q-.12.48-.38.69-.27.2-.73.2h-3.02v-27.49zm29.04 10.56-1.03 1.65q-.19.3-.39.42t-.52.12q-.33 0-.71-.19-.38-.18-.88-.42-.5-.23-1.14-.41-.63-.19-1.5-.19-1.35 0-2.12.58-.77.57-.77 1.49 0 .62.4 1.03.4.42 1.05.73.66.32 1.49.57t1.69.54q.86.3 1.7.68.83.38 1.49.96.65.58 1.05 1.4.4.81.4 1.96 0 1.37-.49 2.52-.49 1.16-1.45 2-.97.84-2.38 1.31-1.42.48-3.27.48-.98 0-1.91-.18-.94-.18-1.8-.49t-1.59-.74-1.28-.92l1.05-1.74q.21-.32.48-.48.28-.17.71-.17.42 0 .8.24t.88.52q.5.27 1.17.51.68.25 1.72.25.81 0 1.39-.2.58-.19.96-.51.38-.31.56-.73.17-.41.17-.86 0-.66-.39-1.09-.4-.43-1.06-.74-.65-.31-1.5-.56-.84-.25-1.72-.55t-1.72-.69q-.84-.4-1.5-1.01-.65-.61-1.05-1.5t-.4-2.15q0-1.16.46-2.22.47-1.05 1.36-1.84.9-.78 2.24-1.26 1.34-.47 3.1-.47 1.96 0 3.57.65t2.68 1.7m3.8-2.05h4.59v18.98h-4.59zm5.21-5.53q0 .59-.24 1.11t-.63.9q-.4.39-.94.62-.54.24-1.15.24-.59 0-1.12-.24-.52-.23-.91-.62-.39-.38-.62-.9t-.23-1.11q0-.61.23-1.15t.62-.92q.39-.39.91-.62.53-.24 1.12-.24.61 0 1.15.24.54.23.94.62.39.38.63.92t.24 1.15m10.36 24.81q-2.47 0-3.8-1.4-1.32-1.4-1.32-3.86v-10.6h-1.94q-.37 0-.63-.24t-.26-.72v-1.81l3.05-.5.96-5.18q.1-.37.36-.58.25-.2.66-.2h2.37v5.98h5.07v3.25h-5.07v10.29q0 .89.43 1.39.44.49 1.2.49.42 0 .71-.1t.5-.21.38-.21q.16-.1.33-.1.2 0 .33.1t.28.3l1.37 2.22q-1 .84-2.29 1.26-1.3.43-2.69.43m11.05-11.97h8.62q0-.89-.25-1.68-.25-.78-.75-1.38-.5-.59-1.27-.93-.76-.34-1.78-.34-1.98 0-3.12 1.13-1.14 1.12-1.45 3.2m11.65 2.75h-11.74q.11 1.46.51 2.53.41 1.06 1.08 1.76.66.69 1.58 1.03.91.34 2.02.34t1.92-.25q.8-.26 1.41-.58.6-.31 1.05-.57t.88-.26q.57 0 .85.42l1.31 1.67q-.76.89-1.7 1.49t-1.97.96-2.09.51-2.06.15q-1.98 0-3.68-.66-1.71-.66-2.96-1.94-1.26-1.29-1.98-3.18-.72-1.9-.72-4.4 0-1.94.62-3.65.63-1.71 1.81-2.98 1.17-1.27 2.87-2.01 1.69-.74 3.82-.74 1.79 0 3.31.58 1.51.57 2.61 1.67 1.09 1.1 1.71 2.7t.62 3.66q0 1.03-.23 1.39-.22.36-.85.36m19.19-4.38h3.72q1.37 0 2.38-.34 1.02-.35 1.7-.98.67-.64 1-1.56.34-.91.34-2.04 0-1.08-.34-1.94-.33-.87-.99-1.48-.67-.62-1.69-.94t-2.4-.32h-3.72zm-4.98-13.45h8.7q2.68 0 4.64.63t3.24 1.76q1.27 1.12 1.89 2.7.62 1.57.62 3.44 0 1.94-.64 3.56-.65 1.62-1.95 2.78-1.29 1.17-3.24 1.82-1.95.64-4.56.64h-3.72v9.42h-4.98zm25.79 15.08h8.62q0-.89-.25-1.68-.25-.78-.75-1.38-.5-.59-1.26-.93-.77-.34-1.79-.34-1.98 0-3.12 1.13-1.13 1.12-1.45 3.2m11.66 2.75h-11.75q.11 1.46.52 2.53.4 1.06 1.07 1.76.67.69 1.58 1.03.92.34 2.03.34t1.91-.25q.81-.26 1.41-.58.6-.31 1.05-.57.46-.26.88-.26.57 0 .85.42l1.32 1.67q-.76.89-1.71 1.49-.94.6-1.97.96-1.02.36-2.09.51-1.06.15-2.06.15-1.98 0-3.68-.66t-2.96-1.94q-1.26-1.29-1.98-3.18-.72-1.9-.72-4.4 0-1.94.63-3.65t1.8-2.98 2.87-2.01q1.69-.74 3.82-.74 1.79 0 3.31.58 1.52.57 2.61 1.67t1.71 2.7.62 3.66q0 1.03-.22 1.39-.23.36-.85.36m8.52-8.91.28 2.14q.89-1.7 2.11-2.67t2.89-.97q1.31 0 2.11.57l-.3 3.42q-.09.34-.27.48-.17.13-.47.13-.28 0-.82-.09-.55-.09-1.07-.09-.76 0-1.35.22t-1.06.64-.83 1.01-.68 1.35v11.69h-4.57v-18.98h2.68q.71 0 .98.25.28.25.37.9m15.67 17.83h-4.57v-15.54l-1.64-.26q-.54-.11-.86-.38-.33-.27-.33-.77v-1.86h2.83v-1.41q0-1.63.49-2.92.49-1.3 1.41-2.2.92-.91 2.23-1.39t2.96-.48q1.31 0 2.44.35l-.09 2.29q-.02.26-.15.42t-.34.24-.49.11-.59.03q-.82 0-1.46.17-.63.18-1.08.61-.44.44-.67 1.15t-.23 1.77v1.26h4.94v3.25h-4.8zm15.77-19.28q2.1 0 3.83.69 1.73.68 2.96 1.94t1.9 3.07.67 4.05q0 2.26-.67 4.07-.67 1.82-1.9 3.09-1.23 1.28-2.96 1.96-1.73.69-3.83.69-2.13 0-3.87-.69-1.74-.68-2.97-1.96-1.23-1.27-1.91-3.09-.67-1.81-.67-4.07 0-2.24.67-4.05.68-1.81 1.91-3.07t2.97-1.94q1.74-.69 3.87-.69m0 16.04q2.36 0 3.5-1.59t1.14-4.66-1.14-4.68-3.5-1.61q-2.41 0-3.57 1.62-1.15 1.62-1.15 4.67t1.15 4.65q1.16 1.6 3.57 1.6m16.89-14.59.27 2.14q.89-1.7 2.11-2.67t2.89-.97q1.31 0 2.11.57l-.3 3.42q-.09.34-.27.48-.17.13-.47.13-.28 0-.82-.09-.55-.09-1.07-.09-.75 0-1.35.22-.59.22-1.06.64t-.83 1.01-.68 1.35v11.69h-4.57v-18.98h2.69q.7 0 .98.25.27.25.37.9m14.33 17.83h-4.57v-18.98h2.8q.89 0 1.16.83l.3 1.41q.5-.56 1.04-1.02.55-.46 1.17-.8.62-.33 1.33-.52.71-.2 1.57-.2 1.79 0 2.95.97 1.15.98 1.73 2.59.44-.95 1.11-1.62.66-.68 1.46-1.1.79-.43 1.69-.63.9-.21 1.8-.21 1.58 0 2.8.48 1.22.49 2.05 1.41.83.93 1.27 2.26.43 1.33.43 3.05v12.08h-4.57v-12.08q0-1.81-.79-2.73-.8-.91-2.33-.91-.71 0-1.31.24t-1.05.69q-.46.45-.71 1.14-.26.68-.26 1.57v12.08h-4.59v-12.08q0-1.91-.77-2.78-.77-.86-2.25-.86-1 0-1.86.49t-1.6 1.34zm36.45-4.9v-3.2q-1.98.09-3.33.34t-2.17.64q-.81.39-1.16.9-.35.52-.35 1.13 0 1.21.71 1.72.71.52 1.86.52 1.4 0 2.43-.51t2.01-1.54m-9.66-9.97-.81-1.47q3.27-2.99 7.88-2.99 1.66 0 2.98.54 1.31.55 2.22 1.52.9.97 1.38 2.32.47 1.35.47 2.96v11.99h-2.07q-.65 0-1-.19-.36-.2-.56-.79l-.41-1.37q-.72.65-1.4 1.14-.69.49-1.43.82t-1.58.51-1.86.18q-1.2 0-2.22-.33-1.01-.32-1.75-.97t-1.15-1.61-.41-2.24q0-.72.24-1.43t.79-1.36q.54-.65 1.41-1.22t2.14-1 2.95-.69q1.68-.27 3.85-.33v-1.11q0-1.9-.82-2.82-.81-.91-2.34-.91-1.11 0-1.85.25-.73.26-1.28.59-.56.32-1.01.58t-1.01.26q-.48 0-.81-.25t-.54-.58m22.37-3.28.31 1.5q.58-.57 1.21-1.06.64-.49 1.35-.84.72-.34 1.53-.53.82-.2 1.78-.2 1.55 0 2.75.53 1.21.53 2.01 1.48.81.95 1.22 2.28.42 1.32.42 2.91v12.08h-4.57v-12.08q0-1.74-.8-2.69-.79-.95-2.42-.95-1.18 0-2.22.53-1.04.54-1.96 1.46v13.73h-4.57v-18.98h2.79q.89 0 1.17.83m31.71 1.52-1.21 1.66q-.2.26-.39.41-.2.15-.57.15-.35 0-.68-.21-.33-.22-.8-.49-.46-.26-1.1-.48-.64-.21-1.58-.21-1.2 0-2.11.44-.91.43-1.51 1.24-.6.82-.89 1.97-.3 1.16-.3 2.62 0 1.52.32 2.7.33 1.19.94 1.99.61.81 1.48 1.22.87.42 1.96.42t1.77-.27q.67-.27 1.13-.59.47-.32.81-.59t.77-.27q.55 0 .83.42l1.31 1.67q-.76.89-1.64 1.49-.89.6-1.85.96-.95.36-1.96.51-1 .15-2 .15-1.76 0-3.31-.66-1.56-.66-2.72-1.91-1.17-1.26-1.85-3.08-.67-1.83-.67-4.16 0-2.09.6-3.87.6-1.79 1.77-3.09 1.16-1.31 2.88-2.05t3.96-.74q2.13 0 3.73.69 1.6.68 2.88 1.96m6.64 4.96h8.62q0-.89-.25-1.68-.25-.78-.75-1.38-.5-.59-1.27-.93-.76-.34-1.78-.34-1.98 0-3.12 1.13-1.14 1.12-1.45 3.2m11.65 2.75h-11.74q.11 1.46.51 2.53.41 1.06 1.08 1.76.66.69 1.58 1.03.91.34 2.02.34t1.92-.25q.8-.26 1.41-.58.6-.31 1.05-.57t.88-.26q.57 0 .85.42l1.31 1.67q-.76.89-1.7 1.49t-1.97.96-2.09.51-2.06.15q-1.98 0-3.68-.66-1.71-.66-2.96-1.94-1.26-1.29-1.98-3.18-.72-1.9-.72-4.4 0-1.94.62-3.65.63-1.71 1.81-2.98 1.17-1.27 2.87-2.01 1.69-.74 3.82-.74 1.79 0 3.31.58 1.51.57 2.61 1.67 1.09 1.1 1.71 2.7t.62 3.66q0 1.03-.23 1.39-.22.36-.85.36"/></svg>